# xmcd
#
# Track frame offsets:
#	150
#	18843
#	31731
#	59527
#	83724
#	119737
#	153070
#	174314
#	203737
#	229141
#	256050
#	293781
#	317388
#	341774
#
# Disc length: 4792 seconds
#
# Revision: 0
# Processed by: cddbd v1.5.2PL0 Copyright (c) Steve Scherf et al.
# Submitted via: EasyCDDAExtractor 11.5.3.1
#
DISCID=b012b60e
DTITLE=III Wrszawskie warsztaty Gospel - Album-maja 2007
DYEAR=1900
DGENRE=
TTITLE0=Great Things
TTITLE1=High and lifted up
TTITLE2=Dwell among us
TTITLE3=Thou oh Lord
TTITLE4=Where You There 
TTITLE5=Friend of god
TTITLE6=Praise Awaits
TTITLE7=Lord help me to hold out
TTITLE8=So Good
TTITLE9=Privilege
TTITLE10=All about You
TTITLE11=I will glorify Your name
TTITLE12=So sweet
TTITLE13=My soul says yes
EXTD=
EXTT0=
EXTT1=
EXTT2=
EXTT3=
EXTT4=
EXTT5=
EXTT6=
EXTT7=
EXTT8=
EXTT9=
EXTT10=
EXTT11=
EXTT12=
EXTT13=
PLAYORDER=
